<?xml version="1.0" encoding="UTF-8" standalone="no"?>
<!DOCTYPE svg PUBLIC "-//W3C//DTD SVG 1.1//EN"
 "http://www.w3.org/Graphics/SVG/1.1/DTD/svg11.dtd">
<!-- Generated by graphviz version 2.40.1 (20161225.0304)
 -->
<!-- Title: dependencies Pages: 1 -->
<svg width="504pt" height="284pt"
 viewBox="0.00 0.00 504.00 284.00" xmlns="http://www.w3.org/2000/svg" xmlns:xlink="http://www.w3.org/1999/xlink">
<g id="graph0" class="graph" transform="scale(1 1) rotate(0) translate(4 280)">
<title>dependencies</title>
<polygon fill="#ffffff" stroke="transparent" points="-4,4 -4,-280 500,-280 500,4 -4,4"/>
<text text-anchor="start" x="227.0091" y="-42.4" font-family="sans-serif" font-weight="bold" font-size="14.00" fill="#000000">Legend</text>
<polygon fill="#ffffb3" stroke="transparent" points="14,-10 14,-30 34,-30 34,-10 14,-10"/>
<text text-anchor="start" x="37.629" y="-15.4" font-family="sans-serif" font-size="14.00" fill="#000000"> &#160;Declarations</text>
<polygon fill="#8dd3c7" stroke="transparent" points="127,-10 127,-30 147,-30 147,-10 127,-10"/>
<text text-anchor="start" x="150.7251" y="-15.4" font-family="sans-serif" font-size="14.00" fill="#000000"> &#160;Module</text>
<polygon fill="#80b1d3" stroke="transparent" points="213,-10 213,-30 233,-30 233,-10 213,-10"/>
<text text-anchor="start" x="236.7812" y="-15.4" font-family="sans-serif" font-size="14.00" fill="#000000"> &#160;Bootstrap</text>
<polygon fill="#fdb462" stroke="transparent" points="310,-10 310,-30 330,-30 330,-10 310,-10"/>
<text text-anchor="start" x="333.6732" y="-15.4" font-family="sans-serif" font-size="14.00" fill="#000000"> &#160;Providers</text>
<polygon fill="#fb8072" stroke="transparent" points="406,-10 406,-30 426,-30 426,-10 406,-10"/>
<text text-anchor="start" x="429.7258" y="-15.4" font-family="sans-serif" font-size="14.00" fill="#000000"> &#160;Exports</text>
<g id="clust1" class="cluster">
<title>cluster_CardModule</title>
<polygon fill="none" stroke="#000000" stroke-dasharray="1,5" points="89,-70 89,-268 233,-268 233,-70 89,-70"/>
</g>
<g id="clust2" class="cluster">
<title>cluster_CardModule_declarations</title>
<polygon fill="none" stroke="#000000" points="99,-78 99,-130 223,-130 223,-78 99,-78"/>
</g>
<g id="clust5" class="cluster">
<title>cluster_CardModule_exports</title>
<polygon fill="none" stroke="#000000" points="97,-208 97,-260 225,-260 225,-208 97,-208"/>
</g>
<g id="clust20" class="cluster">
<title>cluster_ProgressModule</title>
<polygon fill="none" stroke="#000000" stroke-dasharray="1,5" points="241,-70 241,-268 407,-268 407,-70 241,-70"/>
</g>
<g id="clust21" class="cluster">
<title>cluster_ProgressModule_declarations</title>
<polygon fill="none" stroke="#000000" points="251,-78 251,-130 397,-130 397,-78 251,-78"/>
</g>
<g id="clust24" class="cluster">
<title>cluster_ProgressModule_exports</title>
<polygon fill="none" stroke="#000000" points="249,-208 249,-260 399,-260 399,-208 249,-208"/>
</g>
<!-- CardComponent -->
<g id="node1" class="node">
<title>CardComponent</title>
<polygon fill="#ffffb3" stroke="#000000" points="215.0452,-122 106.9548,-122 106.9548,-86 215.0452,-86 215.0452,-122"/>
<text text-anchor="middle" x="161" y="-99.8" font-family="Times,serif" font-size="14.00" fill="#000000">CardComponent</text>
</g>
<!-- CardModule -->
<g id="node2" class="node">
<title>CardModule</title>
<polygon fill="#8dd3c7" stroke="#000000" points="204.2619,-187 201.2619,-191 180.2619,-191 177.2619,-187 117.7381,-187 117.7381,-151 204.2619,-151 204.2619,-187"/>
<text text-anchor="middle" x="161" y="-164.8" font-family="Times,serif" font-size="14.00" fill="#000000">CardModule</text>
</g>
<!-- CardComponent&#45;&gt;CardModule -->
<g id="edge1" class="edge">
<title>CardComponent&#45;&gt;CardModule</title>
<path fill="none" stroke="#000000" d="M161,-122.1061C161,-122.1061 161,-140.991 161,-140.991"/>
<polygon fill="#000000" stroke="#000000" points="157.5001,-140.9909 161,-150.991 164.5001,-140.991 157.5001,-140.9909"/>
</g>
<!-- CardComponent  -->
<g id="node3" class="node">
<title>CardComponent </title>
<polygon fill="#fb8072" stroke="#000000" points="217.0442,-252 104.9558,-252 104.9558,-216 217.0442,-216 217.0442,-252"/>
<text text-anchor="middle" x="161" y="-229.8" font-family="Times,serif" font-size="14.00" fill="#000000">CardComponent </text>
</g>
<!-- CardModule&#45;&gt;CardComponent  -->
<g id="edge2" class="edge">
<title>CardModule&#45;&gt;CardComponent </title>
<path fill="none" stroke="#000000" stroke-dasharray="5,2" d="M161,-187.1061C161,-187.1061 161,-205.991 161,-205.991"/>
<polygon fill="#000000" stroke="#000000" points="157.5001,-205.9909 161,-215.991 164.5001,-205.991 157.5001,-205.9909"/>
</g>
<!-- ProgressComponent -->
<g id="node4" class="node">
<title>ProgressComponent</title>
<polygon fill="#ffffb3" stroke="#000000" points="388.5408,-122 259.4592,-122 259.4592,-86 388.5408,-86 388.5408,-122"/>
<text text-anchor="middle" x="324" y="-99.8" font-family="Times,serif" font-size="14.00" fill="#000000">ProgressComponent</text>
</g>
<!-- ProgressModule -->
<g id="node5" class="node">
<title>ProgressModule</title>
<polygon fill="#8dd3c7" stroke="#000000" points="377.7577,-187 374.7577,-191 353.7577,-191 350.7577,-187 270.2423,-187 270.2423,-151 377.7577,-151 377.7577,-187"/>
<text text-anchor="middle" x="324" y="-164.8" font-family="Times,serif" font-size="14.00" fill="#000000">ProgressModule</text>
</g>
<!-- ProgressComponent&#45;&gt;ProgressModule -->
<g id="edge3" class="edge">
<title>ProgressComponent&#45;&gt;ProgressModule</title>
<path fill="none" stroke="#000000" d="M324,-122.1061C324,-122.1061 324,-140.991 324,-140.991"/>
<polygon fill="#000000" stroke="#000000" points="320.5001,-140.9909 324,-150.991 327.5001,-140.991 320.5001,-140.9909"/>
</g>
<!-- ProgressComponent  -->
<g id="node6" class="node">
<title>ProgressComponent </title>
<polygon fill="#fb8072" stroke="#000000" points="390.54,-252 257.46,-252 257.46,-216 390.54,-216 390.54,-252"/>
<text text-anchor="middle" x="324" y="-229.8" font-family="Times,serif" font-size="14.00" fill="#000000">ProgressComponent </text>
</g>
<!-- ProgressModule&#45;&gt;ProgressComponent  -->
<g id="edge4" class="edge">
<title>ProgressModule&#45;&gt;ProgressComponent </title>
<path fill="none" stroke="#000000" stroke-dasharray="5,2" d="M324,-187.1061C324,-187.1061 324,-205.991 324,-205.991"/>
<polygon fill="#000000" stroke="#000000" points="320.5001,-205.9909 324,-215.991 327.5001,-205.991 320.5001,-205.9909"/>
</g>
</g>
</svg>
